HIERARCHY
ROOT Hips
{
	OFFSET 53.259300 -17.783815 93.620102
	CHANNELS 6 Xposition Yposition Zposition Xrotation Yrotation Zrotation
	JOINT spine
	{
		OFFSET 0.000000 -0.429888 7.475601
		CHANNELS 3 Xrotation Yrotation Zrotation
		JOINT spine1
		{
			OFFSET 0.000000 0.000000 9.923012
			CHANNELS 3 Xrotation Yrotation Zrotation
			JOINT spine2
			{
				OFFSET 0.000000 -0.000002 9.508041
				CHANNELS 3 Xrotation Yrotation Zrotation
				JOINT Neck
				{
					OFFSET 0.000000 -1.163843 24.411095
					CHANNELS 3 Xrotation Yrotation Zrotation
					JOINT Head
					{
						OFFSET 0.000000 -0.000002 7.375229
						CHANNELS 3 Xrotation Yrotation Zrotation
						End Site
						{
							OFFSET 0.000000 5.887407 17.852203
						}
					}
				}
				JOINT RightShoulder
				{
					OFFSET -4.003559 0.557467 10.267906
					CHANNELS 3 Xrotation Yrotation Zrotation
					JOINT RightArm
					{
						OFFSET 0.000000 -0.000002 13.467300
						CHANNELS 3 Xrotation Yrotation Zrotation
						JOINT RightArmRoll
						{
							OFFSET 0.000000 -0.000002 6.798584
							CHANNELS 3 Xrotation Yrotation Zrotation
							JOINT RightForeArm
							{
								OFFSET 0.000000 -0.000004 19.801804
								CHANNELS 3 Xrotation Yrotation Zrotation
								JOINT RightForeArmRoll
								{
									OFFSET 0.000000 0.000000 7.629044
									CHANNELS 3 Xrotation Yrotation Zrotation
									JOINT RightHand
									{
										OFFSET 0.000000 -0.000004 15.309799
										CHANNELS 3 Xrotation Yrotation Zrotation
										End Site
										{
											OFFSET 0.000000 0.000000 0.100006
										}
									}
								}
							}
						}
					}
				}
				JOINT LeftShoulder
				{
					OFFSET 4.003559 0.557467 10.267906
					CHANNELS 3 Xrotation Yrotation Zrotation
					JOINT LeftArm
					{
						OFFSET 0.000000 -0.000002 13.467300
						CHANNELS 3 Xrotation Yrotation Zrotation
						JOINT LeftArmRoll
						{
							OFFSET 0.000000 -0.000002 6.798584
							CHANNELS 3 Xrotation Yrotation Zrotation
							JOINT LeftForeArm
							{
								OFFSET 0.000000 -0.000004 19.801804
								CHANNELS 3 Xrotation Yrotation Zrotation
								JOINT LeftForeArmRoll
								{
									OFFSET 0.000000 0.000000 7.629044
									CHANNELS 3 Xrotation Yrotation Zrotation
									JOINT LeftHand
									{
										OFFSET 0.000000 -0.000004 15.309799
										CHANNELS 3 Xrotation Yrotation Zrotation
										End Site
										{
											OFFSET 0.000000 0.000000 0.100006
										}
									}
								}
							}
						}
					}
				}
			}
		}
	}
	JOINT RightUpLeg
	{
		OFFSET -6.626091 1.019270 -1.215050
		CHANNELS 3 Xrotation Yrotation Zrotation
		JOINT RightUpLegRoll
		{
			OFFSET 0.000000 -0.000002 17.951698
			CHANNELS 3 Xrotation Yrotation Zrotation
			JOINT RightLeg
			{
				OFFSET 0.000000 0.000002 -22.230400
				CHANNELS 3 Xrotation Yrotation Zrotation
				JOINT RightLegRoll
				{
					OFFSET 0.000000 -0.000002 22.303200
					CHANNELS 3 Xrotation Yrotation Zrotation
					JOINT RightFoot
					{
						OFFSET 0.000000 -0.000004 18.563599
						CHANNELS 3 Xrotation Yrotation Zrotation
						JOINT RightToeBase
						{
							OFFSET 0.000000 -0.000002 15.518295
							CHANNELS 3 Xrotation Yrotation Zrotation
							End Site
							{
								OFFSET 0.006577 0.866261 7.515381
							}
						}
					}
				}
			}
		}
	}
	JOINT LeftUpLeg
	{
		OFFSET 6.626091 1.019270 -1.215050
		CHANNELS 3 Xrotation Yrotation Zrotation
		JOINT LeftUpLegRoll
		{
			OFFSET 0.000000 -0.000002 17.951797
			CHANNELS 3 Xrotation Yrotation Zrotation
			JOINT LeftLeg
			{
				OFFSET 0.000000 -0.000004 22.230309
				CHANNELS 3 Xrotation Yrotation Zrotation
				JOINT LeftLegRoll
				{
					OFFSET 0.000000 -0.000004 22.509308
					CHANNELS 3 Xrotation Yrotation Zrotation
					JOINT LeftFoot
					{
						OFFSET 0.000000 -0.000004 18.357498
						CHANNELS 3 Xrotation Yrotation Zrotation
						JOINT LeftToeBase
						{
							OFFSET 0.000000 -0.000002 15.518295
							CHANNELS 3 Xrotation Yrotation Zrotation
							End Site
							{
								OFFSET -0.029476 0.866261 7.515381
							}
						}
					}
				}
			}
		}
	}
}
MOTION
Frames: 4
Frame Time: 0.041667
53.592003 16.012182 58.259815 -18.253349 -1.337861 1.071902 0.045239 -0.353460 -0.270782 4.091754 -0.709723 -0.557543 5.736859 -0.716351 -0.549002 35.819752 15.260523 -3.928742 -15.678554 -13.743930 -1.971144 10.781582 -78.929482 9.074454 81.931138 -72.241039 100.904898 -0.000005 0.000000 -0.000003 0.064567 -8.242467 -0.818128 -0.000003 0.000001 -3.005920 -5.000212 -7.998973 0.000132 83.896006 89.011667 -80.772957 51.106180 73.390150 -80.885409 0.000000 -0.000003 0.000017 2.512619 0.536353 0.853647 -0.000008 0.000007 3.013079 -5.000165 8.000057 -0.000034 -65.673649 -178.555092 10.599040 179.999991 0.000005 -2.140999 89.969868 5.226220 -0.418328 -0.000003 0.000005 2.439240 64.925825 7.886918 0.057880 29.721384 -7.556631 -2.413010 -65.529532 174.702305 -8.847588 -0.000004 -0.000003 -2.149139 -92.726956 -5.468200 -0.979245 0.000001 0.000003 -2.582099 64.404354 -7.991905 0.123404 35.258779 7.257476 -1.242721 
53.591904 16.022993 58.257591 -18.226134 -1.362292 1.089644 0.038446 -0.343328 -0.269005 4.078316 -0.689446 -0.552522 5.723425 -0.696017 -0.544225 35.911690 15.171819 -3.916258 -15.744657 -13.690917 -1.965868 10.953988 -79.067991 9.233654 81.440327 -72.224025 100.434790 -0.000002 0.000000 -0.000003 0.064349 -8.247045 -0.818416 0.000001 0.000000 -3.005920 -5.000212 -7.998972 0.000133 80.202506 89.005206 -77.085132 51.286275 73.412560 -81.045987 -0.000001 -0.000003 0.000016 2.471748 0.536405 0.853628 -0.000010 0.000008 3.013082 -5.000167 8.000059 -0.000030 -65.722894 -178.524028 10.590184 179.999991 0.000005 -2.136996 89.970940 5.233824 -0.419271 -0.000003 0.000005 2.436940 64.881026 7.868408 0.106580 29.738487 -7.558048 -2.420967 -65.557686 174.728670 -8.862608 -0.000004 -0.000005 -2.149400 -92.703856 -5.462790 -0.972017 0.000001 0.000003 -2.581199 64.388692 -7.995514 0.130829 35.248547 7.257474 -1.241780 
53.593803 16.029791 58.255005 -18.198824 -1.387406 1.107600 0.031245 -0.332984 -0.267254 4.064099 -0.668765 -0.547497 5.709187 -0.675278 -0.539448 36.008098 15.080672 -3.903162 -15.812084 -13.636474 -1.960021 11.133920 -79.209444 9.400070 80.938657 -72.205263 99.954259 -0.000001 -0.000000 -0.000004 0.064020 -8.251846 -0.818793 -0.000002 0.000001 -3.005919 -5.000211 -7.998973 0.000134 76.671810 88.994141 -73.560188 51.454400 73.435107 -81.194550 0.000000 -0.000003 0.000017 2.430247 0.537712 0.853592 -0.000009 0.000007 3.013081 -5.000167 8.000057 -0.000037 -65.771955 -178.491831 10.580725 179.999991 0.000005 -2.132994 89.972060 5.241532 -0.420129 -0.000003 0.000005 2.434630 64.835571 7.849726 0.155770 29.759052 -7.559779 -2.430771 -65.585846 174.754980 -8.877947 -0.000004 -0.000004 -2.149671 -92.680667 -5.457240 -0.963786 0.000000 0.000003 -2.580330 64.373194 -7.999314 0.138724 35.238534 7.257474 -1.240876 
53.597504 16.042986 58.241196 -18.171619 -1.412983 1.125707 0.023761 -0.322492 -0.265521 4.049310 -0.647805 -0.542466 5.694413 -0.654258 -0.534669 36.107635 14.987749 -3.889467 -15.880547 -13.580910 -1.953741 11.320998 -79.352947 9.573421 80.430020 -72.184861 99.467075 0.000001 0.000000 -0.000003 0.063612 -8.256795 -0.819231 0.000002 0.000001 -3.005919 -5.000210 -7.998971 0.000133 73.311617 88.979101 -70.205855 51.614141 73.457640 -81.334685 -0.000000 -0.000004 0.000017 2.388306 0.539893 0.853547 -0.000011 0.000008 3.013080 -5.000164 8.000057 -0.000032 -65.820703 -178.458909 10.571104 179.999991 0.000005 -2.129005 89.973242 5.249136 -0.420980 -0.000003 0.000006 2.432300 64.789781 7.830815 0.205120 29.781855 -7.561760 -2.441880 -65.613857 174.781659 -8.894528 -0.000004 -0.000004 -2.149930 -92.657349 -5.451469 -0.955544 0.000000 0.000003 -2.579460 64.357546 -8.003292 0.146962 35.228524 7.257479 -1.239977 
